<svg xmlns="http://www.w3.org/2000/svg" viewBox="0 0 1024 1024" role="img"><path d="M709.846 294.79c40.62 46.8 31.535 90.85 31.535 299.959h-79.869V399.002c0-85.183-109.698-88.44-109.698 11.829v107.126h-79.363V410.831c0-100.27-109.69-97.012-109.69-11.829V594.75h-80.048c0-209.281-8.914-253.501 31.534-299.959 44.4-49.534 136.784-52.791 177.918 10.458l19.886 33.428 19.877-33.428c41.315-63.592 133.87-59.65 177.918-10.458zM1024 64v896a63.995 63.995 0 01-64 64H64a63.995 63.995 0 01-64-64V64A63.995 63.995 0 0164 0h896a63.995 63.995 0 0164 64zM870.107 380.154c0-166.604-109.183-215.453-109.183-215.453-107.126-49.192-391.656-48.677-497.754 0 0 0-109.184 48.849-109.184 215.453 0 198.31-11.305 444.619 181.004 495.525 69.42 18.334 129.07 22.277 177.061 19.534 87.07-4.8 135.918-31.02 135.918-31.02l-2.914-63.249s-62.22 19.543-132.147 17.315c-69.249-2.4-142.269-7.543-153.575-92.564a175.535 175.535 0 01-1.543-23.82c146.718 35.82 271.845 15.6 306.293 11.486 96.155-11.486 179.975-70.792 190.596-124.955 16.8-85.355 15.428-208.252 15.428-208.252z"/></svg>